<svg width="40" height="40" viewBox="0 0 40 40" fill="none" xmlns="http://www.w3.org/2000/svg">
<g clip-path="url(#clip0_3647_2712)">
<mask id="mask0_3647_2712" style="mask-type:luminance" maskUnits="userSpaceOnUse" x="0" y="0" width="40" height="40">
<path d="M40 0H0V40H40V0Z" fill="white"/>
</mask>
<g mask="url(#mask0_3647_2712)">
<path d="M38.0703 20.5146C37.8994 20.1865 37.8994 19.8115 38.0703 19.4756L39.6254 16.4209C40.4884 14.7178 39.8045 12.6943 38.0622 11.8115L34.9358 10.2178C34.602 10.0459 34.3659 9.74121 34.3007 9.38183L33.6901 6.03809C33.3482 4.17871 31.557 2.9209 29.603 3.18652L26.0939 3.6709C25.7194 3.72559 25.3449 3.6084 25.0681 3.35059L22.5197 0.991211C21.1031 -0.321289 18.8804 -0.321289 17.4638 0.991211L14.9154 3.35059C14.6386 3.6084 14.2641 3.72559 13.8896 3.6709L10.3805 3.19434C8.42653 2.92871 6.63537 4.17871 6.29342 6.0459L5.69908 9.38965C5.63394 9.74902 5.39783 10.0537 5.06403 10.2256L1.93763 11.8193C0.195313 12.7021 -0.488587 14.7334 0.37443 16.4287L1.92948 19.4834C2.10046 19.8115 2.10046 20.1865 1.92948 20.5225L0.37443 23.5693C-0.488587 25.2725 0.195313 27.2959 1.93763 28.1787L5.06403 29.7725C5.39783 29.9443 5.63394 30.249 5.69908 30.6084L6.3097 33.9521C6.65165 35.8115 8.44282 37.0693 10.3968 36.8037L13.9059 36.3271C14.2804 36.2725 14.6549 36.3896 14.9317 36.6475L17.4801 39.0068C18.1884 39.6631 19.1002 39.9912 20.004 39.9912C20.9158 39.9912 21.8196 39.6631 22.5279 39.0068L25.0762 36.6475C25.353 36.3896 25.7276 36.2725 26.1021 36.3271L29.6111 36.8037C29.7903 36.8271 29.9612 36.8428 30.1322 36.8428C31.8745 36.8428 33.3889 35.6553 33.6983 33.96L34.3089 30.6162C34.374 30.2568 34.6101 29.9521 34.9439 29.7803L38.0703 28.1865C39.8126 27.3037 40.4965 25.2725 39.6335 23.5771L38.0703 20.5146Z" fill="#F55D87"/>
<path d="M39.6252 16.4297C40.4882 14.7266 39.8043 12.7031 38.062 11.8203L34.9356 10.2266C34.6018 10.0547 34.3657 9.75 34.3005 9.39062L33.6899 6.04688C33.348 4.1875 31.5568 2.92969 29.6028 3.19531L26.0937 3.67188C25.7192 3.72656 25.3447 3.60938 25.0679 3.35156L22.5195 0.992188C21.8194 0.328125 20.9075 0 19.9956 0V40C20.9075 40 21.8112 39.6719 22.5195 39.0156L25.0679 36.6562C25.3447 36.3984 25.7192 36.2812 26.0937 36.3359L29.6028 36.8125C29.7819 36.8359 29.9529 36.8516 30.1239 36.8516C31.8662 36.8516 33.3805 35.6641 33.6899 33.9688L34.3005 30.625C34.3657 30.2656 34.6018 29.9609 34.9356 29.7891L38.062 28.1953C39.8043 27.3125 40.4882 25.2812 39.6252 23.5859L38.0701 20.5312C37.8991 20.2031 37.8991 19.8281 38.0701 19.4922L39.6252 16.4297Z" fill="#E93667"/>
<path d="M14.3863 14.2334C13.7187 14.2334 13.1814 14.749 13.1814 15.3896V19.7334L10.6493 14.874C10.3969 14.3975 9.84327 14.1475 9.29778 14.2646C8.75229 14.3896 8.36963 14.8506 8.36963 15.3896V24.6162C8.36963 25.2568 8.90698 25.7724 9.5746 25.7724C10.2422 25.7724 10.7796 25.2568 10.7796 24.6162V20.2725L13.3116 25.1318C13.5152 25.5303 13.9385 25.7724 14.3863 25.7724C14.4759 25.7724 14.5736 25.7646 14.6631 25.7412C15.2086 25.6162 15.5913 25.1553 15.5913 24.6162V15.3818C15.5913 14.749 15.0539 14.2334 14.3863 14.2334Z" fill="white"/>
<path d="M22.4059 16.5391C23.0735 16.5391 23.6108 16.0234 23.6108 15.3828C23.6108 14.7422 23.0735 14.2266 22.4059 14.2266H17.5941C16.9265 14.2266 16.3892 14.7422 16.3892 15.3828V24.6094C16.3892 25.25 16.9265 25.7656 17.5941 25.7656H22.4059C23.0735 25.7656 23.6108 25.25 23.6108 24.6094C23.6108 23.9688 23.0735 23.4531 22.4059 23.4531H18.7991V21.1484H21.608C22.2756 21.1484 22.8129 20.6328 22.8129 19.9922C22.8129 19.3516 22.2756 18.8359 21.608 18.8359H18.7991V16.5313L22.4059 16.5391Z" fill="white"/>
<path d="M22.8045 20C22.8045 19.3594 22.2672 18.8438 21.5995 18.8438H19.9956V21.1483H21.5995C22.2672 21.1561 22.8045 20.6406 22.8045 20Z" fill="#DDDDDD"/>
<path d="M22.4057 14.2344H20.0039V16.5391H22.4057C23.0733 16.5391 23.6106 16.0234 23.6106 15.3828C23.6025 14.75 23.0651 14.2344 22.4057 14.2344Z" fill="#DDDDDD"/>
<path d="M23.6024 24.6172C23.6024 23.9766 23.065 23.4609 22.3974 23.4609H19.9956V25.7656H22.3974C23.065 25.7656 23.6024 25.25 23.6024 24.6172Z" fill="#DDDDDD"/>
<path d="M30.417 14.2344C29.7493 14.2344 29.212 14.75 29.212 15.3906V19.7344L29.0817 19.4922C28.8782 19.1016 28.463 18.8516 28.007 18.8516C27.5511 18.8516 27.1359 19.1016 26.9323 19.4922L26.8021 19.7344V15.3906C26.8021 14.75 26.2647 14.2344 25.5971 14.2344C24.9295 14.2344 24.3921 14.75 24.3921 15.3906V24.6172C24.3921 25.1484 24.7748 25.6172 25.3203 25.7422C25.8658 25.8672 26.4194 25.6172 26.6718 25.1328L27.9989 22.5859L29.326 25.1328C29.5295 25.5313 29.9529 25.7734 30.4007 25.7734C30.4902 25.7734 30.5879 25.7656 30.6775 25.7422C31.223 25.6172 31.6056 25.1563 31.6056 24.6172V15.3828C31.6219 14.75 31.0846 14.2344 30.417 14.2344Z" fill="#DDDDDD"/>
</g>
</g>
<defs>
<clipPath id="clip0_3647_2712">
<rect width="40" height="40" fill="white"/>
</clipPath>
</defs>
</svg>
