<svg width="35" height="49" viewBox="0 0 35 49" fill="none" xmlns="http://www.w3.org/2000/svg">
<g clip-path="url(#clip0_3647_2699)">
<mask id="mask0_3647_2699" style="mask-type:luminance" maskUnits="userSpaceOnUse" x="0" y="0" width="35" height="49">
<path d="M35 0H0V48.125H35V0Z" fill="white"/>
</mask>
<g mask="url(#mask0_3647_2699)">
<path d="M13.333 8.49709L17.6929 11.8809L17.6819 11.9373C20.5774 13.5916 24.0235 17.7931 24.6731 18.9586L24.6951 18.9962C24.2877 14.0803 22.6252 9.70961 20.9408 6.93679C16.0744 3.36501 18.3975 5.0757 17.7479 4.58693C16.3717 3.57179 14.2909 3.70339 13.0908 4.86891C12.0008 5.94045 12.1109 7.54775 13.333 8.49709Z" fill="#FCE06F"/>
<path d="M19.4982 9.79419L15.1383 6.3822C14.4007 5.80884 14.0704 4.99109 14.1695 4.19214C13.7731 4.35193 13.4098 4.58691 13.1015 4.8877C12.0116 5.94983 12.1216 7.55713 13.3437 8.50647L17.7036 11.8903L17.6926 11.9467C20.5881 13.601 24.0342 17.8025 24.6838 18.968L24.7058 19.0056C24.5406 16.9941 24.1553 15.0673 23.6599 13.3096C22.3827 11.9561 20.8744 10.5837 19.4982 9.79419Z" fill="#FAC75A"/>
<path d="M34.3497 20.1157C34.3497 20.1157 32.6652 8.15027 24.8703 0.997317C23.6152 -0.158811 21.5344 -0.328 20.048 0.611941C18.6058 1.52368 18.2424 3.23438 19.2113 4.5221C21.094 7.03174 23.8244 11.5905 24.518 17.6719C24.551 18.3016 24.1767 17.8035 24.1767 17.8035C21.0169 13.6301 17.4387 11.4871 15.1927 10.6975C14.6973 10.5189 14.1468 10.4719 13.6073 10.5471C11.7137 10.8103 6.48402 11.5811 3.83067 13.8369C0.494717 16.6849 3.6435 19.2228 6.0106 19.2228C7.57398 19.2228 10.2494 18.3204 11.8898 17.7001C12.7266 17.3805 13.7174 17.5873 14.3009 18.1982L17.3507 21.3846C17.769 21.8264 18.0112 22.3622 18.0333 22.9262L18.2645 28.6034C18.2865 29.064 18.0553 29.5151 17.6479 29.8159L15.2808 31.583C14.345 32.4196 12.8477 32.5418 11.7357 31.8932C11.2513 31.536 9.90805 31.1318 9.58877 29.7595C8.92818 26.7987 7.95933 24.2703 7.86024 24.0823C6.75926 21.9204 4.62337 20.5293 1.95901 21.3752C-2.01551 22.6348 1.17732 24.6744 1.61771 33.1433C1.68377 34.3746 2.24526 35.4932 3.14806 36.3579C5.09679 38.2284 6.5721 40.0425 9.66584 43.5579C9.97411 43.915 10.2384 44.3004 10.4585 44.7046C10.8109 45.372 10.7668 45.9547 10.7668 45.9923C10.7668 47.1766 11.8898 48.1354 13.277 48.1354H27.8209C29.1091 48.1354 30.155 47.2424 30.155 46.1427C30.2871 41.4524 29.7807 40.3527 30.7825 38.7454C31.3551 37.8242 31.8065 36.8467 32.1698 35.8503C32.5441 34.854 33.0175 33.7919 33.502 32.6264C36.2544 25.9716 34.3827 20.4823 34.3497 20.1157Z" fill="#FCE06F"/>
<path d="M14.2033 45.9819C14.2033 45.9349 14.2473 45.3334 13.884 44.6378C13.6638 44.2148 13.3886 43.8107 13.0583 43.4347C9.83241 39.7595 8.29104 37.8702 6.25424 35.9152C5.31841 35.0128 4.72388 33.8473 4.65782 32.5596C4.28349 25.3408 1.98245 22.5962 3.42473 21.1111C2.96232 21.1205 2.47789 21.2051 1.98245 21.3555C-1.99207 22.615 1.20076 24.6547 1.64115 33.1235C1.70721 34.3549 2.26871 35.4734 3.17151 36.3381C5.12023 38.2086 6.59554 40.0227 9.68928 43.5381C9.99755 43.8953 10.2618 44.2806 10.482 44.6848C10.8343 45.3522 10.7903 45.9349 10.7903 45.9725C10.7903 47.1569 11.9133 48.1156 13.3005 48.1156H16.0639C14.985 47.843 14.2033 46.9971 14.2033 45.9819Z" fill="#FAC75A"/>
<path d="M21.7884 21.9006C21.7664 21.3085 21.5132 20.7445 21.0728 20.2839L17.8799 16.9565C17.2744 16.3268 16.2395 16.1106 15.3697 16.4396C13.6632 17.0787 10.8667 18.0281 9.23724 18.0281C6.33066 18.0281 3.18187 14.7853 7.77294 11.8057C6.29763 12.2944 4.87738 12.943 3.84246 13.8265C0.506507 16.6746 3.65529 19.2124 6.02239 19.2124C7.58578 19.2124 10.2612 18.3101 11.9016 17.6897C12.7384 17.3701 13.7293 17.5769 14.3128 18.1879L17.3625 21.3743C17.7808 21.816 18.0231 22.3518 18.0451 22.9158C18.2653 28.8092 18.3754 28.7998 18.1111 29.2886C17.8909 29.7021 17.7368 29.7397 15.5018 31.4222C15.2706 31.5726 14.6981 32.2306 13.487 32.3058C13.487 32.3058 15.9202 32.7194 18.2212 31.4034C18.5185 31.2624 18.1992 31.488 21.381 29.1006C21.8104 28.781 22.0416 28.3204 22.0196 27.8317L21.7884 21.9006Z" fill="#FAC75A"/>
<path d="M28.3283 14.9182C27.3704 9.32553 24.8162 5.0958 23.0106 2.68955C22.394 1.8718 22.2949 0.884862 22.6583 0.0295157C21.7665 -0.0644784 20.8306 0.12351 20.0489 0.612279C18.6067 1.52402 18.2433 3.23471 19.2122 4.52243C22.0087 8.2446 23.9684 12.8221 24.5189 17.6722C24.5299 17.8414 24.5079 17.9354 24.4749 17.9636C28.8237 17.973 28.3283 14.9182 28.3283 14.9182Z" fill="#FAC75A"/>
</g>
</g>
<defs>
<clipPath id="clip0_3647_2699">
<rect width="35" height="49" fill="white"/>
</clipPath>
</defs>
</svg>
