<svg width="40" height="35" viewBox="0 0 40 35" fill="none" xmlns="http://www.w3.org/2000/svg">
<g clip-path="url(#clip0_3647_2674)">
<mask id="mask0_3647_2674" style="mask-type:luminance" maskUnits="userSpaceOnUse" x="0" y="0" width="40" height="35">
<path d="M40 0H0V35H40V0Z" fill="white"/>
</mask>
<g mask="url(#mask0_3647_2674)">
<path d="M22.3438 0C21.4375 0 20.625 0.349845 20 0.909596C19.375 0.349845 18.5625 0 17.6562 0C15.7188 0 14.1406 1.57041 14.1406 3.49845C14.1406 5.42648 15.7188 6.99689 17.6562 6.99689C18.5625 6.99689 19.375 6.64705 20 6.08729C20.625 6.64705 21.4375 6.99689 22.3438 6.99689C24.2812 6.99689 25.8594 5.42648 25.8594 3.49845C25.8594 1.57041 24.2812 0 22.3438 0ZM17.6562 4.66459C17.0078 4.66459 16.4844 4.14371 16.4844 3.49845C16.4844 2.85318 17.0078 2.3323 17.6562 2.3323C18.3047 2.3323 18.8281 2.85318 18.8281 3.49845C18.8281 4.14371 18.3047 4.66459 17.6562 4.66459ZM22.3438 4.66459C21.6953 4.66459 21.1719 4.14371 21.1719 3.49845C21.1719 2.85318 21.6953 2.3323 22.3438 2.3323C22.9922 2.3323 23.5156 2.85318 23.5156 3.49845C23.5156 4.14371 22.9922 4.66459 22.3438 4.66459Z" fill="#FCE06F"/>
<path d="M25.8594 3.49845C25.8594 1.57041 24.2812 0 22.3438 0C21.4375 0 20.625 0.349845 20 0.909596V6.08729C20.625 6.64705 21.4375 6.99689 22.3438 6.99689C24.2812 6.99689 25.8594 5.43425 25.8594 3.49845ZM21.1719 3.49845C21.1719 2.85318 21.6953 2.3323 22.3438 2.3323C22.9922 2.3323 23.5156 2.85318 23.5156 3.49845C23.5156 4.14371 22.9922 4.66459 22.3438 4.66459C21.6953 4.66459 21.1719 4.14371 21.1719 3.49845Z" fill="#FAC75A"/>
<path d="M36.1015 14.7945C35.5702 13.916 35.3202 12.5555 35.3202 10.5031C35.3202 7.28454 32.6874 4.67236 29.4608 4.67236H19.9999H10.539C7.30463 4.67236 4.67964 7.29231 4.67964 10.5031C4.67964 12.5322 4.42964 13.8927 3.89839 14.7634C2.57807 16.9402 2.95307 19.8556 4.81245 21.8458L19.9921 21.8614L35.1718 21.8769C37.0312 19.8789 37.414 16.9713 36.1015 14.7945Z" fill="#FCE06F"/>
<path d="M36.1016 14.7945C35.5703 13.916 35.3203 12.5555 35.3203 10.5031C35.3203 7.28454 32.6875 4.67236 29.4609 4.67236H20V21.8692L35.1797 21.8847C37.0312 19.8789 37.4141 16.9713 36.1016 14.7945Z" fill="#FAC75A"/>
<path d="M35.7656 20.6408C33.2422 18.9848 30.6328 17.2745 30.6328 10.5031V9.33691H20H9.36719V10.5031C9.36719 17.2278 6.75781 18.946 4.23438 20.6174C2.15625 21.9857 0 23.4084 0 27.2101C0 32.38 4.54688 34.9999 13.3672 34.9999H20H26.6328C35.4531 34.9999 40 32.38 40 27.2101C40 23.4162 37.8516 22.0013 35.7656 20.6408Z" fill="#F55D87"/>
<path d="M40 27.2101C40 23.4084 37.8516 22.0013 35.7656 20.6408C33.2422 18.9848 30.6328 17.2745 30.6328 10.5031V9.33691H20V35.0077H26.6328C35.4531 34.9999 40 32.38 40 27.2101Z" fill="#E93667"/>
<path d="M20 20.9986C19.3516 20.9986 18.8281 20.4777 18.8281 19.8324C18.8281 19.1871 19.3516 18.6663 20 18.6663C20.6484 18.6663 21.1719 19.1871 21.1719 19.8324H23.5156C23.5156 18.3086 22.5312 17.0259 21.1719 16.5439V13.9939H20H18.8281V16.5439C17.4688 17.0259 16.4844 18.3086 16.4844 19.8324C16.4844 21.7682 18.0625 23.3309 20 23.3309C20.6484 23.3309 21.1719 23.8517 21.1719 24.497C21.1719 25.1423 20.6484 25.6632 20 25.6632C19.3516 25.6632 18.8281 25.1423 18.8281 24.497H16.4844C16.4844 26.0208 17.4688 27.3035 18.8281 27.7855V30.3355H20H21.1719V27.7855C22.5312 27.3035 23.5156 26.0208 23.5156 24.497C23.5156 22.569 21.9453 20.9986 20 20.9986Z" fill="white"/>
<path d="M21.1719 27.7855C22.5312 27.3035 23.5156 26.0207 23.5156 24.497C23.5156 22.5612 21.9375 20.9985 20 20.9985V23.3308C20.6484 23.3308 21.1719 23.8517 21.1719 24.497C21.1719 25.1422 20.6484 25.6631 20 25.6631V30.3277H21.1719V27.7855Z" fill="#DDDDDD"/>
<path d="M21.1719 19.8324H23.5156C23.5156 18.3086 22.5312 17.0259 21.1719 16.5439V13.9939H20V18.6585C20.6484 18.6663 21.1719 19.1949 21.1719 19.8324Z" fill="#DDDDDD"/>
</g>
</g>
<defs>
<clipPath id="clip0_3647_2674">
<rect width="40" height="35" fill="white"/>
</clipPath>
</defs>
</svg>
